# Blender v2.82 (sub 7) OBJ File: ''
# www.blender.org
mtllib floor_and_wall2.mtl
o Plane
v -50.000000 0.000000 -50.000004
v 50.000000 0.000000 -50.000004
v 50.000000 50.000000 -49.999996
v -50.000000 50.000000 -49.999996
vt 3.009054 0.000000
vt 0.000000 1.000000
vt 0.000000 0.000000
vt 3.009054 1.000000
vn 0.0000 -0.0000 1.0000
usemtl Material.001
s 1
f 2/1/1 4/2/1 1/3/1
f 2/1/1 3/4/1 4/2/1
o Plane.001
v -50.000000 -0.000008 50.000000
v 50.000000 -0.000008 50.000000
v 50.000000 0.000008 -50.000000
v -50.000000 0.000008 -50.000000
vt 2.289055 -1.289055
vt -1.289055 2.289055
vt -1.289055 -1.289055
vt 2.289055 2.289055
vn 0.0000 1.0000 0.0000
usemtl Material.002
s 1
f 6/5/2 8/6/2 5/7/2
f 6/5/2 7/8/2 8/6/2
o Plane.002
v 50.000004 50.000000 50.000000
v 49.999996 50.000000 -50.000000
v 49.999996 0.000000 -50.000000
v 50.000004 0.000000 50.000000
vt 3.009054 0.000000
vt 0.000000 1.000000
vt 0.000000 0.000000
vt 3.009054 1.000000
vn -1.0000 0.0000 0.0000
usemtl Material.001
s 1
f 10/9/3 12/10/3 9/11/3
f 10/9/3 11/12/3 12/10/3
